<svg xmlns="http://www.w3.org/2000/svg" viewBox="0 0 123.2 33.4">
  <g fill="#fff">
    <path d="M 94.4 8.3 H 81.6 v 4.2 h 4.3 V 25 h 4.2 V 12.5 h 4.3 z M 75.7 14.2 h -5.9 V 8.3 h -4.2 v 5.9 h -1.2 v 4.2 h 1.2 V 25 h 4.2 v -6.6 h 5.9 V 25 h 4.2 V 8.3 h -4.2 z M 54.9 18.4 h 7.8 v -4.2 h -7.9 v -1.7 h 8.1 l 0.1 -4.2 H 50.7 V 25 h 12.5 v -4.1 h -8.3 z M 32.3 25 h 4.4 l 4.2 -12.5 h 3.4 V 25 h 4.4 V 8.3 H 37.9 z"/>
    <path d="M 103.4 8.3 h -5.2 L 95.7 16 h -2.8 v 4.2 h 1.4 L 92.6 25 h 4.2 l 1.7 -4.9 h 4.8 L 105 25 h 4.2 l -5.8 -16.7 z M 99.9 16 l 1 -2.9 l 1 2.9 h -2 z M 29.8 10.7 c -0.2 0 1.7 -0.9 1.7 -1.3 c 0 -0.9 -1.9 -1.6 -3.8 -1.5 c -0.2 0 0 -0.9 -0.5 -1.8 c -0.3 -0.5 -0.4 -0.7 -2.4 0.1 c -0.2 -0.8 -1.2 -3.2 -3 -0.9 c -0.3 -0.4 -0.5 -0.9 -1.1 -1.1 l -0.9 1.1 c -0.4 -0.2 -1.3 -0.8 -2.1 -0.7 c -0.1 0.1 -0.2 0.6 -0.2 1.3 c -0.2 0 -1.2 -0.3 -2.1 -0.1 c 0 0.1 0.3 1 0.6 1.4 c -0.6 0 -1.7 0.3 -1.9 0.6 c 0 0.2 0 0.6 1.3 1.7 c -0.7 0.2 -1.4 0.8 -1.4 1 c -0.1 0.8 1.5 1.8 2 2 c -0.4 0.8 -0.7 1.8 -0.5 2.2 c 0.9 0.7 1.8 0.8 2.5 0.7 l -0.1 0.5 v 0.1 l -0.2 0.6 l -0.1 0.3 c 0 0.4 0.9 0.7 1.6 0.7 h 0.7 a 5 5 0 0 0 1.7 -0.5 l 0.3 -0.2 c 0.3 0.5 1 1.5 2.8 2.2 c 0.3 -0.2 0.9 -1.3 0.9 -1.4 c 0.2 0.3 1.6 1.2 2.7 1 c 0.5 -0.4 0.4 -2.2 0.4 -2.2 s 1.1 0.4 1.8 0.3 c 0.2 0 0.6 0 0.7 -0.4 v -1.2 c -0.2 -0.6 -0.9 -1.3 -0.9 -1.3 s 1.3 -0.2 2 -1 c 0.1 -0.7 -1.4 -1.8 -2.5 -2.2 z m -2.7 2.9 l -0.7 0.2 l -0.1 0.6 h -0.8 l -0.3 0.5 l -0.8 -0.2 l -0.5 0.3 l -0.8 -0.4 l -0.7 0.1 l -0.6 -0.7 H 21 l -0.4 -0.6 l -0.8 -0.2 l -0.2 -0.6 l -0.7 -0.4 l 0.1 -0.6 l -0.7 -0.6 l 0.3 -0.5 l -0.4 -0.6 l 0.5 -0.3 l -0.1 -0.6 l 0.7 -0.2 l 0.1 -0.6 h 0.8 l 0.3 -0.5 l 0.8 0.3 l 0.5 -0.3 l 0.7 0.4 l 0.8 -0.1 l 0.6 0.5 l 0.8 0.1 l 0.4 0.6 l 0.8 0.3 l 0.2 0.6 l 0.7 0.4 v 0.5 l 0.6 0.5 l -0.3 0.5 l 0.4 0.6 l -0.6 0.4 l 0.2 0.6 z"/>
    <path d="M 27.6 22.7 c -2.4 -2 -4.3 -0.5 -4.8 -0.3 a 9 9 0 0 0 -1.7 1.4 l 0.7 -3.3 c 0.1 -0.8 0.5 -3 0 -3.3 c -0.1 0 -0.1 -0.1 -0.2 0.4 c 0 0 -0.1 0.9 -0.8 3.1 l -0.6 2 c -0.2 -0.8 -0.9 -1.9 -2.4 -2.9 c -0.5 -0.3 -2.4 -1.9 -4.8 0.3 c -0.2 0.2 -0.4 0.6 0.1 0.9 c 0.5 0.3 0.7 0.5 0.8 0.9 c 0.1 0.4 0.7 1.8 2.7 1.9 c 2 0.2 2.4 0.4 2.7 0.7 l 0.4 0.3 v 0.1 s -0.3 2.5 0.4 3.5 c 0.7 1.1 1.5 0.8 1.5 0.8 s -0.6 -0.8 -0.8 -2.2 l 0.4 -0.3 c 0.4 -0.3 0.7 -0.5 2.7 -0.7 c 1.9 -0.1 2.5 -1.4 2.7 -1.8 c 0.1 -0.4 0.3 -0.5 0.8 -0.8 c 0.6 -0.2 0.4 -0.5 0.2 -0.7 z m -13.9 -2.3 a 5 5 0 0 1 5.6 2.6 c -2.6 -2.7 -5.6 -2.6 -5.6 -2.6 z m 7.5 4.9 c 0.7 -1.2 2.2 -2.8 5.6 -2.3 c 0 0 -4 0.5 -5.6 2.3 z"/>
  </g>
</svg>
