<svg xmlns="http://www.w3.org/2000/svg" viewBox="0 0 2500 583"><path fill="#fff" d="M509 501c0 40-33 72-58 72H172L523 11H54v93h24c0-39 25-71 50-71h241L16 594h510v-93h-17M918 576zM1118 549L847 11 598 549c-5 12-29 27-63 27v18h133v-18c-25 0-51-12-45-27l60-130h230l65 130c8 13-26 27-60 27v18h276v-18c-41 0-67-13-76-27zM693 398l99-218 111 218H693zM1226 34c40 0 74 10 74 23v491c0 14-33 29-74 29v17h270v-16c-40 0-72-16-72-30V30h78c75 0 136 62 136 133s-61 128-136 128h-54l183 277c7 10 11 27 11 27h196v-16c-37 0-57-16-68-29l-176-230c84-5 150-74 150-155 0-84-73-153-163-153h-355v23M2440 549L2168 11l-249 538c-4 12-28 28-62 28v17h132v-16c-24 0-51-14-44-29l60-130h229l66 130c7 13-26 28-60 28v17h276v-17c-42 0-67-14-76-28zm-425-151l99-218 111 218h-210z"/></svg>
